<svg width="23" height="25" viewBox="0 0 23 25" fill="none" xmlns="http://www.w3.org/2000/svg">
<path d="M20.0579 0.888916H2.42973C1.1026 0.888916 0.0258789 2.00871 0.0258789 3.38892V21.7222C0.0258789 23.1025 1.1026 24.2222 2.42973 24.2222H20.0579C21.3851 24.2222 22.4618 23.1025 22.4618 21.7222V3.38892C22.4618 2.00871 21.3851 0.888916 20.0579 0.888916ZM18.4554 14.0139C18.4554 14.3577 18.1849 14.6389 17.8544 14.6389H13.247V19.4306C13.247 19.7743 12.9766 20.0556 12.6461 20.0556H9.84159C9.51106 20.0556 9.24062 19.7743 9.24062 19.4306V14.6389H4.63325C4.30272 14.6389 4.03229 14.3577 4.03229 14.0139V11.0972C4.03229 10.7535 4.30272 10.4722 4.63325 10.4722H9.24062V5.68058C9.24062 5.33683 9.51106 5.05558 9.84159 5.05558H12.6461C12.9766 5.05558 13.247 5.33683 13.247 5.68058V10.4722H17.8544C18.1849 10.4722 18.4554 10.7535 18.4554 11.0972V14.0139Z" fill="white"/>
</svg>
