<svg width="17" height="20" viewBox="0 0 17 20" fill="none" xmlns="http://www.w3.org/2000/svg">
<path d="M0 18.125C0 19.1602 0.815848 20 1.82143 20H15.1786C16.1842 20 17 19.1602 17 18.125V7.5H0V18.125ZM12.1429 10.4688C12.1429 10.2109 12.3478 10 12.5982 10H14.1161C14.3665 10 14.5714 10.2109 14.5714 10.4688V12.0312C14.5714 12.2891 14.3665 12.5 14.1161 12.5H12.5982C12.3478 12.5 12.1429 12.2891 12.1429 12.0312V10.4688ZM12.1429 15.4688C12.1429 15.2109 12.3478 15 12.5982 15H14.1161C14.3665 15 14.5714 15.2109 14.5714 15.4688V17.0312C14.5714 17.2891 14.3665 17.5 14.1161 17.5H12.5982C12.3478 17.5 12.1429 17.2891 12.1429 17.0312V15.4688ZM7.28571 10.4688C7.28571 10.2109 7.49062 10 7.74107 10H9.25893C9.50938 10 9.71429 10.2109 9.71429 10.4688V12.0312C9.71429 12.2891 9.50938 12.5 9.25893 12.5H7.74107C7.49062 12.5 7.28571 12.2891 7.28571 12.0312V10.4688ZM7.28571 15.4688C7.28571 15.2109 7.49062 15 7.74107 15H9.25893C9.50938 15 9.71429 15.2109 9.71429 15.4688V17.0312C9.71429 17.2891 9.50938 17.5 9.25893 17.5H7.74107C7.49062 17.5 7.28571 17.2891 7.28571 17.0312V15.4688ZM2.42857 10.4688C2.42857 10.2109 2.63348 10 2.88393 10H4.40179C4.65223 10 4.85714 10.2109 4.85714 10.4688V12.0312C4.85714 12.2891 4.65223 12.5 4.40179 12.5H2.88393C2.63348 12.5 2.42857 12.2891 2.42857 12.0312V10.4688ZM2.42857 15.4688C2.42857 15.2109 2.63348 15 2.88393 15H4.40179C4.65223 15 4.85714 15.2109 4.85714 15.4688V17.0312C4.85714 17.2891 4.65223 17.5 4.40179 17.5H2.88393C2.63348 17.5 2.42857 17.2891 2.42857 17.0312V15.4688ZM15.1786 2.5H13.3571V0.625C13.3571 0.28125 13.0839 0 12.75 0H11.5357C11.2018 0 10.9286 0.28125 10.9286 0.625V2.5H6.07143V0.625C6.07143 0.28125 5.79821 0 5.46429 0H4.25C3.91607 0 3.64286 0.28125 3.64286 0.625V2.5H1.82143C0.815848 2.5 0 3.33984 0 4.375V6.25H17V4.375C17 3.33984 16.1842 2.5 15.1786 2.5Z" fill="#747272"/>
</svg>
