<svg width="18" height="14" viewBox="0 0 18 14" fill="none" xmlns="http://www.w3.org/2000/svg">
<path d="M8.99957 3.06292C11.1329 3.06292 12.8597 4.66827 13.0186 6.70264L15.9689 8.9194C16.3568 8.44635 16.7137 7.94624 17.0017 7.39936C17.066 7.27563 17.0996 7.13893 17.0996 7.00028C17.0996 6.86163 17.066 6.72493 17.0017 6.6012C15.4765 3.70796 12.457 1.75042 8.99957 1.75042C8.24273 1.75042 7.5126 1.85979 6.80892 2.03643L8.26832 3.13428C8.50935 3.08902 8.7541 3.06513 8.99957 3.06292ZM0.173384 1.47424L3.2826 3.81049C2.33812 4.58435 1.56133 5.53307 0.997446 6.60147C0.933107 6.7252 0.899586 6.86191 0.899586 7.00055C0.899586 7.1392 0.933107 7.2759 0.997446 7.39964C2.52266 10.2929 5.54217 12.2504 8.99957 12.2504C10.4476 12.2487 11.8721 11.8943 13.1429 11.2196L16.721 13.9083C16.7677 13.9436 16.821 13.9696 16.878 13.9848C16.935 14.0001 16.9946 14.0042 17.0532 13.9971C17.1119 13.99 17.1685 13.9717 17.2199 13.9432C17.2713 13.9148 17.3164 13.8768 17.3527 13.8314L17.9048 13.1405C17.978 13.0489 18.0108 12.9327 17.996 12.8176C17.9812 12.7025 17.92 12.5978 17.8258 12.5266L1.27813 0.0925646C1.23148 0.0572662 1.17812 0.0312519 1.12111 0.0160093C1.06411 0.000766754 1.00458 -0.00340652 0.945915 0.00372887C0.887251 0.0108652 0.830608 0.0291691 0.779224 0.0575962C0.72784 0.0860224 0.682722 0.124014 0.646446 0.169401L0.0940704 0.860378C0.0208645 0.952009 -0.0119076 1.06816 0.00296593 1.18328C0.0178394 1.2984 0.0791416 1.40306 0.173384 1.47424ZM5.34051 5.35706L6.44582 6.18776C6.35274 6.44931 6.30336 6.72368 6.29957 7.00042C6.29408 7.40558 6.38641 7.80635 6.56913 8.17053C6.75185 8.53471 7.01988 8.85215 7.35168 9.09735C7.68349 9.34255 8.06981 9.50868 8.47963 9.58239C8.88945 9.65611 9.31134 9.63535 9.71142 9.52178C9.54182 9.29836 9.45008 9.0281 9.44957 8.75042C9.45377 8.65801 9.46829 8.56633 9.49288 8.47698L11.5632 10.0326C10.844 10.6168 9.93677 10.9372 8.99957 10.9379C8.46764 10.9382 7.94086 10.8366 7.44935 10.6388C6.95785 10.441 6.51127 10.151 6.13513 9.78529C5.75899 9.4196 5.46068 8.98542 5.25726 8.50757C5.05383 8.02972 4.94928 7.51758 4.94957 7.00042C4.94957 6.40897 5.09835 5.85772 5.34051 5.35678V5.35706Z" fill="#747272"/>
</svg>
