<svg width="18" height="20" viewBox="0 0 18 20" fill="none" xmlns="http://www.w3.org/2000/svg">
<g clip-path="url(#clip0)">
<path d="M1.26984 18.1248C1.26984 18.622 1.47052 19.099 1.82773 19.4506C2.18495 19.8022 2.66943 19.9998 3.1746 19.9998H14.6032C15.1083 19.9998 15.5928 19.8022 15.95 19.4506C16.3073 19.099 16.5079 18.622 16.5079 18.1248V4.99976H1.26984V18.1248ZM12.0635 8.12476C12.0635 7.959 12.1304 7.80003 12.2495 7.68282C12.3685 7.56561 12.53 7.49976 12.6984 7.49976C12.8668 7.49976 13.0283 7.56561 13.1474 7.68282C13.2664 7.80003 13.3333 7.959 13.3333 8.12476V16.8748C13.3333 17.0405 13.2664 17.1995 13.1474 17.3167C13.0283 17.4339 12.8668 17.4998 12.6984 17.4998C12.53 17.4998 12.3685 17.4339 12.2495 17.3167C12.1304 17.1995 12.0635 17.0405 12.0635 16.8748V8.12476ZM8.25397 8.12476C8.25397 7.959 8.32086 7.80003 8.43993 7.68282C8.559 7.56561 8.7205 7.49976 8.88889 7.49976C9.05728 7.49976 9.21877 7.56561 9.33785 7.68282C9.45692 7.80003 9.52381 7.959 9.52381 8.12476V16.8748C9.52381 17.0405 9.45692 17.1995 9.33785 17.3167C9.21877 17.4339 9.05728 17.4998 8.88889 17.4998C8.7205 17.4998 8.559 17.4339 8.43993 17.3167C8.32086 17.1995 8.25397 17.0405 8.25397 16.8748V8.12476ZM4.44444 8.12476C4.44444 7.959 4.51134 7.80003 4.63041 7.68282C4.74948 7.56561 4.91097 7.49976 5.07937 7.49976C5.24776 7.49976 5.40925 7.56561 5.52832 7.68282C5.64739 7.80003 5.71429 7.959 5.71429 8.12476V16.8748C5.71429 17.0405 5.64739 17.1995 5.52832 17.3167C5.40925 17.4339 5.24776 17.4998 5.07937 17.4998C4.91097 17.4998 4.74948 17.4339 4.63041 17.3167C4.51134 17.1995 4.44444 17.0405 4.44444 16.8748V8.12476ZM17.1429 1.24976H12.381L12.0079 0.519294C11.9289 0.363128 11.8072 0.231764 11.6565 0.139981C11.5058 0.048198 11.332 -0.00036242 11.1548 -0.000237292H6.61905C6.44221 -0.000906454 6.26877 0.0474729 6.11857 0.139358C5.96838 0.231243 5.84752 0.362917 5.76984 0.519294L5.39683 1.24976H0.634921C0.466529 1.24976 0.305035 1.31561 0.185964 1.43282C0.0668932 1.55003 0 1.709 0 1.87476L0 3.12476C0 3.29052 0.0668932 3.44949 0.185964 3.5667C0.305035 3.68391 0.466529 3.74976 0.634921 3.74976H17.1429C17.3112 3.74976 17.4727 3.68391 17.5918 3.5667C17.7109 3.44949 17.7778 3.29052 17.7778 3.12476V1.87476C17.7778 1.709 17.7109 1.55003 17.5918 1.43282C17.4727 1.31561 17.3112 1.24976 17.1429 1.24976Z" fill="#7FFF7F"/>
</g>
<defs>
<clipPath id="clip0">
<rect width="17.7778" height="20" fill="white"/>
</clipPath>
</defs>
</svg>
