<svg width="18" height="20" viewBox="0 0 18 20" fill="none" xmlns="http://www.w3.org/2000/svg">
<path d="M1.26984 18.1249C1.26984 18.6222 1.47052 19.0991 1.82773 19.4507C2.18495 19.8023 2.66943 19.9999 3.1746 19.9999H14.6032C15.1083 19.9999 15.5928 19.8023 15.95 19.4507C16.3073 19.0991 16.5079 18.6222 16.5079 18.1249V4.99988H1.26984V18.1249ZM12.0635 8.12488C12.0635 7.95912 12.1304 7.80015 12.2495 7.68294C12.3685 7.56573 12.53 7.49988 12.6984 7.49988C12.8668 7.49988 13.0283 7.56573 13.1474 7.68294C13.2664 7.80015 13.3333 7.95912 13.3333 8.12488V16.8749C13.3333 17.0406 13.2664 17.1996 13.1474 17.3168C13.0283 17.434 12.8668 17.4999 12.6984 17.4999C12.53 17.4999 12.3685 17.434 12.2495 17.3168C12.1304 17.1996 12.0635 17.0406 12.0635 16.8749V8.12488ZM8.25397 8.12488C8.25397 7.95912 8.32086 7.80015 8.43993 7.68294C8.559 7.56573 8.7205 7.49988 8.88889 7.49988C9.05728 7.49988 9.21877 7.56573 9.33785 7.68294C9.45692 7.80015 9.52381 7.95912 9.52381 8.12488V16.8749C9.52381 17.0406 9.45692 17.1996 9.33785 17.3168C9.21877 17.434 9.05728 17.4999 8.88889 17.4999C8.7205 17.4999 8.559 17.434 8.43993 17.3168C8.32086 17.1996 8.25397 17.0406 8.25397 16.8749V8.12488ZM4.44444 8.12488C4.44444 7.95912 4.51134 7.80015 4.63041 7.68294C4.74948 7.56573 4.91097 7.49988 5.07937 7.49988C5.24776 7.49988 5.40925 7.56573 5.52832 7.68294C5.64739 7.80015 5.71429 7.95912 5.71429 8.12488V16.8749C5.71429 17.0406 5.64739 17.1996 5.52832 17.3168C5.40925 17.434 5.24776 17.4999 5.07937 17.4999C4.91097 17.4999 4.74948 17.434 4.63041 17.3168C4.51134 17.1996 4.44444 17.0406 4.44444 16.8749V8.12488ZM17.1429 1.24988H12.381L12.0079 0.519416C11.9289 0.36325 11.8072 0.231886 11.6565 0.140103C11.5058 0.04832 11.332 -0.00024035 11.1548 -0.000115222H6.61905C6.44221 -0.000784383 6.26877 0.0475949 6.11857 0.13948C5.96838 0.231365 5.84752 0.363039 5.76984 0.519416L5.39683 1.24988H0.634921C0.466529 1.24988 0.305035 1.31573 0.185964 1.43294C0.0668932 1.55015 0 1.70912 0 1.87488L0 3.12488C0 3.29065 0.0668932 3.44962 0.185964 3.56683C0.305035 3.68404 0.466529 3.74988 0.634921 3.74988H17.1429C17.3112 3.74988 17.4727 3.68404 17.5918 3.56683C17.7109 3.44962 17.7778 3.29065 17.7778 3.12488V1.87488C17.7778 1.70912 17.7109 1.55015 17.5918 1.43294C17.4727 1.31573 17.3112 1.24988 17.1429 1.24988Z" fill="#D1D9D1"/>
</svg>
