<svg width="20" height="20" viewBox="0 0 20 20" fill="none" xmlns="http://www.w3.org/2000/svg">
<path d="M17.8571 20H2.14286C0.959821 20 0 19.0402 0 17.8571V2.14286C0 0.959821 0.959821 0 2.14286 0H17.8571C19.0402 0 20 0.959821 20 2.14286V17.8571C20 19.0402 19.0402 20 17.8571 20ZM10.6295 6.51339L4.57143 12.5714L4.29018 15.1205C4.25446 15.4598 4.54018 15.75 4.88393 15.7143L7.43304 15.433L13.4911 9.375C13.5938 9.27232 13.5938 9.10268 13.4911 8.99554L11.0134 6.51786C10.9018 6.41071 10.7321 6.41071 10.6295 6.51339ZM15.4018 5.94196L14.058 4.59821C13.6384 4.17857 12.9598 4.17857 12.5446 4.59821L11.5134 5.62946C11.4107 5.73214 11.4107 5.90179 11.5134 6.00893L13.9911 8.48661C14.0938 8.58929 14.2634 8.58929 14.3705 8.48661L15.4018 7.45536C15.817 7.04018 15.817 6.36161 15.4018 5.94196Z" fill="#7FFF7F" fill-opacity="0.9"/>
</svg>
