<svg width="27" height="25" viewBox="0 0 27 25" fill="none" xmlns="http://www.w3.org/2000/svg">
<path d="M18.5912 4.56946L22.5351 8.68013C22.7013 8.85331 22.7013 9.13586 22.5351 9.30904L12.9857 19.2622L8.92812 19.7316C8.38594 19.7954 7.92684 19.3168 7.98805 18.7517L8.43841 14.5226L17.9878 4.56946C18.1539 4.39628 18.425 4.39628 18.5912 4.56946ZM25.6745 3.52584L23.5408 1.30188C22.8762 0.609172 21.7962 0.609172 21.1272 1.30188L19.5794 2.91516C19.4132 3.08834 19.4132 3.37089 19.5794 3.54407L23.5233 7.65474C23.6894 7.82792 23.9605 7.82792 24.1267 7.65474L25.6745 6.04146C26.3391 5.3442 26.3391 4.21855 25.6745 3.52584ZM17.7779 16.5551V21.1945H3.78615V6.61112H13.834C13.9739 6.61112 14.1051 6.55188 14.2056 6.45162L15.9546 4.6287C16.2869 4.28235 16.0508 3.69446 15.583 3.69446H3.08656C1.92787 3.69446 0.987793 4.67427 0.987793 5.88196V21.9236C0.987793 23.1313 1.92787 24.1111 3.08656 24.1111H18.4775C19.6362 24.1111 20.5763 23.1313 20.5763 21.9236V14.7322C20.5763 14.2446 20.0122 14.003 19.6799 14.3448L17.931 16.1678C17.8348 16.2726 17.7779 16.4093 17.7779 16.5551Z" fill="white"/>
</svg>
