<svg width="27" height="21" viewBox="0 0 27 21" fill="none" xmlns="http://www.w3.org/2000/svg">
<path d="M26.325 18.3759H22.95V4.65416C22.95 3.53607 22.0417 2.62594 20.925 2.62594H16.2V5.25094H20.25V21.0009H26.325C26.6979 21.0009 27 20.7073 27 20.3447V19.0322C27 18.6696 26.6979 18.3759 26.325 18.3759ZM13.1726 0.0423624L5.07263 2.08248C4.47145 2.23383 4.05 2.77769 4.05 3.40195V18.3759H0.675C0.302063 18.3759 0 18.6696 0 19.0322V20.3447C0 20.7073 0.302063 21.0009 0.675 21.0009H14.85V1.36184C14.85 0.476718 14.0248 -0.172559 13.1726 0.0423624ZM11.1375 11.8134C10.5785 11.8134 10.125 11.2257 10.125 10.5009C10.125 9.77619 10.5785 9.18844 11.1375 9.18844C11.6965 9.18844 12.15 9.77619 12.15 10.5009C12.15 11.2257 11.6965 11.8134 11.1375 11.8134Z" fill="#FFFF00"/>
</svg>
