<svg width="27" height="22" viewBox="0 0 27 22" fill="none" xmlns="http://www.w3.org/2000/svg">
<path d="M9.45 11C10.518 11 11.5621 10.6774 12.4501 10.0731C13.3381 9.46874 14.0302 8.60975 14.439 7.60476C14.8477 6.59977 14.9546 5.4939 14.7462 4.42701C14.5379 3.36011 14.0236 2.3801 13.2684 1.61092C12.5132 0.841726 11.551 0.317902 10.5035 0.105683C9.45599 -0.106535 8.37023 0.00238305 7.38351 0.418665C6.39679 0.834947 5.55342 1.5399 4.96006 2.44437C4.3667 3.34884 4.05 4.41221 4.05 5.5C4.05 6.95869 4.61893 8.35764 5.63162 9.38909C6.64432 10.4205 8.01783 11 9.45 11ZM13.5 13.75C13.503 13.2907 13.6206 12.8398 13.8417 12.4395C13.6392 12.418 13.4409 12.375 13.23 12.375H12.5255C11.5612 12.8279 10.5119 13.0625 9.45 13.0625C8.3881 13.0625 7.33883 12.8279 6.37453 12.375H5.67C4.16633 12.3753 2.72433 12.9839 1.66108 14.0668C0.597817 15.1498 0.000335529 16.6185 0 18.15L0 19.9375C0 20.4845 0.213348 21.0091 0.593109 21.3959C0.97287 21.7827 1.48794 22 2.025 22H13.8755C13.6328 21.5837 13.5032 21.1091 13.5 20.625V13.75ZM25.65 12.375H24.3V8.9375C24.3 8.02582 23.9444 7.15148 23.3115 6.50682C22.6786 5.86217 21.8201 5.5 20.925 5.5C20.0299 5.5 19.1714 5.86217 18.5385 6.50682C17.9056 7.15148 17.55 8.02582 17.55 8.9375V12.375H16.2C15.842 12.375 15.4986 12.5199 15.2454 12.7777C14.9922 13.0356 14.85 13.3853 14.85 13.75V20.625C14.85 20.9897 14.9922 21.3394 15.2454 21.5973C15.4986 21.8551 15.842 22 16.2 22H25.65C26.008 22 26.3514 21.8551 26.6046 21.5973C26.8578 21.3394 27 20.9897 27 20.625V13.75C27 13.3853 26.8578 13.0356 26.6046 12.7777C26.3514 12.5199 26.008 12.375 25.65 12.375ZM20.925 18.5625C20.658 18.5625 20.397 18.4819 20.175 18.3308C19.953 18.1797 19.7799 17.9649 19.6778 17.7137C19.5756 17.4624 19.5488 17.186 19.6009 16.9193C19.653 16.6525 19.7816 16.4075 19.9704 16.2152C20.1592 16.0229 20.3998 15.892 20.6616 15.8389C20.9235 15.7859 21.1949 15.8131 21.4416 15.9172C21.6883 16.0212 21.8991 16.1975 22.0475 16.4236C22.1958 16.6497 22.275 16.9156 22.275 17.1875C22.275 17.5522 22.1328 17.9019 21.8796 18.1598C21.6264 18.4176 21.283 18.5625 20.925 18.5625ZM22.275 12.375H19.575V8.9375C19.575 8.57283 19.7172 8.22309 19.9704 7.96523C20.2236 7.70737 20.567 7.5625 20.925 7.5625C21.283 7.5625 21.6264 7.70737 21.8796 7.96523C22.1328 8.22309 22.275 8.57283 22.275 8.9375V12.375Z" fill="#FFFF00"/>
</svg>
