<svg width="27" height="22" viewBox="0 0 27 22" fill="none" xmlns="http://www.w3.org/2000/svg">
<path d="M9.45 11C12.4327 11 14.85 8.53789 14.85 5.5C14.85 2.46211 12.4327 0 9.45 0C6.46734 0 4.05 2.46211 4.05 5.5C4.05 8.53789 6.46734 11 9.45 11ZM13.23 12.375H12.5255C11.5889 12.8133 10.5469 13.0625 9.45 13.0625C8.35312 13.0625 7.31531 12.8133 6.37453 12.375H5.67C2.53969 12.375 0 14.9617 0 18.15V19.9375C0 21.0762 0.907031 22 2.025 22H13.6223C13.5211 21.7078 13.4789 21.3984 13.5127 21.0848L13.7995 18.468L13.8502 17.991L14.1834 17.6516L17.4445 14.3301C16.4109 13.1398 14.9133 12.375 13.23 12.375ZM15.1411 18.6184L14.8542 21.2395C14.8078 21.6777 15.1706 22.0473 15.5967 21.9957L18.1659 21.7035L23.9836 15.7781L20.9587 12.6973L15.1411 18.6184ZM26.7047 11.5543L25.1058 9.92578C24.7134 9.52617 24.0722 9.52617 23.6798 9.92578L22.0852 11.55L21.9122 11.7262L24.9412 14.807L26.7047 13.0109C27.097 12.607 27.097 11.9582 26.7047 11.5543Z" fill="#FFFF00"/>
</svg>
