<svg width="18" height="12" viewBox="0 0 18 12" fill="none" xmlns="http://www.w3.org/2000/svg">
<path d="M0.108732 6.45625C1.80342 9.76281 5.15843 12 9 12C12.8416 12 16.1975 9.76125 17.8913 6.45594C17.9628 6.31453 18 6.1583 18 5.99984C18 5.84139 17.9628 5.68516 17.8913 5.54375C16.1966 2.23719 12.8416 0 9 0C5.15843 0 1.80249 2.23875 0.108732 5.54406C0.0372448 5.68547 0 5.8417 0 6.00016C0 6.15861 0.0372448 6.31484 0.108732 6.45625ZM9 1.5C9.89002 1.5 10.76 1.76392 11.5001 2.25839C12.2401 2.75285 12.8169 3.45566 13.1575 4.27792C13.4981 5.10019 13.5872 6.00499 13.4135 6.87791C13.2399 7.75082 12.8113 8.55264 12.182 9.18198C11.5526 9.81132 10.7508 10.2399 9.87791 10.4135C9.00499 10.5872 8.10019 10.4981 7.27792 10.1575C6.45565 9.81686 5.75285 9.24009 5.25838 8.50007C4.76391 7.76005 4.49999 6.89002 4.49999 6C4.4997 5.40897 4.6159 4.82368 4.84195 4.27758C5.06799 3.73149 5.39945 3.2353 5.81737 2.81738C6.23529 2.39946 6.73148 2.068 7.27758 1.84196C7.82368 1.61591 8.40897 1.49971 9 1.5ZM9 9C9.26777 8.99626 9.53382 8.95642 9.79094 8.88156C9.57899 8.59354 9.47729 8.2391 9.50426 7.88252C9.53124 7.52594 9.68511 7.19083 9.93797 6.93797C10.1908 6.68511 10.5259 6.53124 10.8825 6.50426C11.2391 6.47729 11.5935 6.57899 11.8816 6.79094C12.0456 6.18669 12.016 5.54623 11.7969 4.95969C11.5779 4.37315 11.1804 3.87007 10.6604 3.52126C10.1405 3.17246 9.52425 2.99548 8.89845 3.01525C8.27265 3.03502 7.66881 3.25054 7.17191 3.63147C6.67501 4.0124 6.31008 4.53956 6.12849 5.13875C5.94689 5.73795 5.95777 6.37901 6.15959 6.9717C6.36141 7.56439 6.74401 8.07886 7.25355 8.44272C7.76308 8.80657 8.37389 9.00147 9 9Z" fill="#747272"/>
</svg>
