<svg width="19" height="22" viewBox="0 0 19 22" fill="none" xmlns="http://www.w3.org/2000/svg">
<path d="M9.5 11C12.4984 11 14.9286 8.53789 14.9286 5.5C14.9286 2.46211 12.4984 0 9.5 0C6.50156 0 4.07143 2.46211 4.07143 5.5C4.07143 8.53789 6.50156 11 9.5 11ZM13.3 12.375H12.5917C11.6502 12.8133 10.6027 13.0625 9.5 13.0625C8.39732 13.0625 7.35402 12.8133 6.40826 12.375H5.7C2.55312 12.375 0 14.9617 0 18.15V19.9375C0 21.0762 0.91183 22 2.03571 22H16.9643C18.0882 22 19 21.0762 19 19.9375V18.15C19 14.9617 16.4469 12.375 13.3 12.375Z" fill="#FFFF00"/>
</svg>
